<svg xmlns="http://www.w3.org/2000/svg"  viewBox="0 0 48 48" width="48px" height="48px" baseProfile="basic"><path fill="#52cccc" d="M28.5,5.75c-7.594,0-13.75,6.156-13.75,13.75c0,2.773,0.828,5.35,2.24,7.51	l-10.93,10.93v2.121l1.879,1.879h2.121l10.93-10.93c2.16,1.412,4.737,2.24,7.51,2.24c7.594,0,13.75-6.156,13.75-13.75	C42.25,11.906,36.094,5.75,28.5,5.75z" opacity=".15"/><path fill="#52cccc" d="M28.5,4.5c-8.271,0-15,6.729-15,15c0,3.024,0.906,5.837,2.452,8.195l-3.184,3.184h-1.414	l-6.543,6.543v3.156l2.611,2.611h3.156l4.448-4.448v-1.414l5.279-5.279c2.358,1.545,5.171,2.452,8.195,2.452c8.271,0,15-6.729,15-15	S36.771,4.5,28.5,4.5z M9.957,41.689H8.043l-1.732-1.732v-1.914l5.903-5.903l3.646,3.646L9.957,41.689z M16.037,35.61l-3.646-3.646	l4.749-4.749c0.976,1.434,2.212,2.671,3.646,3.646L16.037,35.61z M28.5,33c-2.623,0-5.172-0.761-7.373-2.2l-0.17-0.111l-0.001,0.001	c-1.436-0.971-2.675-2.211-3.646-3.646l0.001-0.001l-0.111-0.17c-1.439-2.201-2.2-4.75-2.2-7.373C15,12.056,21.056,6,28.5,6	S42,12.056,42,19.5S35.944,33,28.5,33z M28.5,31.125c-6.41,0-11.625-5.215-11.625-11.625S22.09,7.875,28.5,7.875	S40.125,13.09,40.125,19.5S34.91,31.125,28.5,31.125z M28.5,8.125c-6.272,0-11.375,5.103-11.375,11.375S22.228,30.875,28.5,30.875	S39.875,25.772,39.875,19.5S34.772,8.125,28.5,8.125z"/><path fill="#52cccc" d="M29.668,11.079l-0.497-0.054l0.214-1.988l0.497,0.054L29.668,11.079z M31.274,9.379	l-0.485-0.12L30.307,11.2l0.485,0.12L31.274,9.379z M32.617,9.843l-0.464-0.185l-0.741,1.857l0.464,0.185L32.617,9.843z M33.883,10.488l-0.435-0.247l-0.986,1.74l0.435,0.247L33.883,10.488z M35.048,11.301l-0.398-0.303l-1.212,1.592l0.398,0.303	L35.048,11.301z M36.102,12.252l-0.354-0.354l-1.415,1.415l0.354,0.354L36.102,12.252z M37.002,13.35l-0.303-0.398l-1.592,1.212	l0.303,0.398L37.002,13.35z M37.759,14.552l-0.247-0.435l-1.74,0.986l0.247,0.435L37.759,14.552z M38.342,15.847l-0.185-0.464	l-1.857,0.741l0.185,0.464L38.342,15.847z M38.741,17.211l-0.12-0.485l-1.941,0.481l0.12,0.485L38.741,17.211z M38.963,18.614	l-0.054-0.497l-1.988,0.214l0.054,0.497L38.963,18.614z" opacity=".8"/></svg>